<svg xmlns="http://www.w3.org/2000/svg" viewBox="0 0 480 340"><defs><linearGradient id="dough" x1="0" y1="0" x2="0" y2="1"><stop stop-color="#eeb66b"/><stop offset=".25" stop-color="#c07930"/><stop offset=".55" stop-color="#e6a54e"/><stop offset="1" stop-color="#ad6028"/></linearGradient><radialGradient id="plate"><stop offset=".68" stop-color="#fffaf0"/><stop offset=".72" stop-color="#e5d9c5"/><stop offset=".83" stop-color="#faf4e7"/><stop offset="1" stop-color="#e6dac7"/></radialGradient><radialGradient id="choc"><stop stop-color="#69412c"/><stop offset="1" stop-color="#37261f"/></radialGradient><filter id="shadow" x="-30%" y="-30%" width="170%" height="180%"><feDropShadow dx="3" dy="10" stdDeviation="8" flood-color="#795537" flood-opacity=".2"/></filter><pattern id="cloth" width="24" height="24" patternUnits="userSpaceOnUse"><rect width="24" height="24" fill="#f0dfcd"/><path d="M0 0H24M0 0V24" stroke="#c59270" stroke-width="5" opacity=".4"/></pattern><g id="stick"><rect x="0" y="0" width="220" height="28" rx="14" fill="url(#dough)" stroke="#a7642c" stroke-width="1"/><path d="M12 6H207M7 13H213M11 21H208" stroke="#ffcf7e" stroke-width="2" fill="none"/><path d="M10 9H210M9 17H211M14 25H206" stroke="#9e5524" stroke-width="1.2" opacity=".7"/><circle cx="10" cy="3" r="1.5" fill="#fff0cd" opacity=".8"/><circle cx="53" cy="14" r="0.8" fill="#fff0cd" opacity=".8"/><circle cx="96" cy="25" r="0.8" fill="#fff0cd" opacity=".8"/><circle cx="139" cy="13" r="1.5" fill="#fff0cd" opacity=".8"/><circle cx="182" cy="24" r="0.8" fill="#fff0cd" opacity=".8"/><circle cx="28" cy="12" r="0.8" fill="#fff0cd" opacity=".8"/><circle cx="71" cy="23" r="1.5" fill="#fff0cd" opacity=".8"/><circle cx="114" cy="11" r="0.8" fill="#fff0cd" opacity=".8"/><circle cx="157" cy="22" r="0.8" fill="#fff0cd" opacity=".8"/><circle cx="200" cy="10" r="1.5" fill="#fff0cd" opacity=".8"/><circle cx="46" cy="21" r="0.8" fill="#fff0cd" opacity=".8"/><circle cx="89" cy="9" r="0.8" fill="#fff0cd" opacity=".8"/><circle cx="132" cy="20" r="1.5" fill="#fff0cd" opacity=".8"/><circle cx="175" cy="8" r="0.8" fill="#fff0cd" opacity=".8"/><circle cx="21" cy="19" r="0.8" fill="#fff0cd" opacity=".8"/><circle cx="64" cy="7" r="1.5" fill="#fff0cd" opacity=".8"/><circle cx="107" cy="18" r="0.8" fill="#fff0cd" opacity=".8"/><circle cx="150" cy="6" r="0.8" fill="#fff0cd" opacity=".8"/><circle cx="193" cy="17" r="1.5" fill="#fff0cd" opacity=".8"/><circle cx="39" cy="5" r="0.8" fill="#fff0cd" opacity=".8"/><circle cx="82" cy="16" r="0.8" fill="#fff0cd" opacity=".8"/><circle cx="125" cy="4" r="1.5" fill="#fff0cd" opacity=".8"/><circle cx="168" cy="15" r="0.8" fill="#fff0cd" opacity=".8"/><circle cx="14" cy="3" r="0.8" fill="#fff0cd" opacity=".8"/><circle cx="57" cy="14" r="1.5" fill="#fff0cd" opacity=".8"/><circle cx="100" cy="25" r="0.8" fill="#fff0cd" opacity=".8"/><circle cx="143" cy="13" r="0.8" fill="#fff0cd" opacity=".8"/><circle cx="186" cy="24" r="1.5" fill="#fff0cd" opacity=".8"/><circle cx="32" cy="12" r="0.8" fill="#fff0cd" opacity=".8"/><circle cx="75" cy="23" r="0.8" fill="#fff0cd" opacity=".8"/><circle cx="118" cy="11" r="1.5" fill="#fff0cd" opacity=".8"/><circle cx="161" cy="22" r="0.8" fill="#fff0cd" opacity=".8"/></g><g id="cup"><ellipse cx="0" cy="18" rx="88" ry="65" fill="url(#plate)"/><path d="M55 -20C105 -40 108 40 61 31" stroke="#f9f0df" stroke-width="15" fill="none"/><path d="M-59 -27Q-64 68 0 68Q65 67 59 -27" fill="#f6e7d1" stroke="#ddc7a5" stroke-width="2"/><ellipse cy="-25" rx="60" ry="43" fill="#fff7e9"/><ellipse cy="-25" rx="51" ry="34" fill="url(#choc)"/><path d="M-31 -37Q-8 -52 27 -36" stroke="#bd9772" opacity=".45" fill="none" stroke-width="3"/></g></defs><rect width="680" height="620" fill="#e4decd"/><path d="M51 110 345 77 414 268 88 295Z" fill="#c3925d"/><path d="M63 114 337 91 395 257 100 278Z" fill="#f3dfbf"/><g filter="url(#shadow)" transform="translate(90 125) rotate(-8)"><use href="#stick" transform="translate(0 0) rotate(0)"/><use href="#stick" transform="translate(12 35) rotate(4)"/><use href="#stick" transform="translate(0 70) rotate(0)"/><use href="#stick" transform="translate(12 105) rotate(4)"/><use href="#stick" transform="translate(0 140) rotate(0)"/></g><g transform="translate(363 217) scale(.65)" filter="url(#shadow)"><use href="#cup"/></g></svg>
